<svg width="54" height="54" viewBox="0 0 54 54" fill="none" xmlns="http://www.w3.org/2000/svg">
<g id="server">
<path id="Vector" d="M45 4.5H9C6.51472 4.5 4.5 6.51472 4.5 9V18C4.5 20.4853 6.51472 22.5 9 22.5H45C47.4853 22.5 49.5 20.4853 49.5 18V9C49.5 6.51472 47.4853 4.5 45 4.5Z" stroke="#242424" stroke-width="3" stroke-linecap="round" stroke-linejoin="round"/>
<path id="Vector_2" d="M45 31.5H9C6.51472 31.5 4.5 33.5147 4.5 36V45C4.5 47.4853 6.51472 49.5 9 49.5H45C47.4853 49.5 49.5 47.4853 49.5 45V36C49.5 33.5147 47.4853 31.5 45 31.5Z" stroke="#242424" stroke-width="3" stroke-linecap="round" stroke-linejoin="round"/>
<path id="Vector_3" d="M13.5 13.5H13.5225" stroke="#242424" stroke-width="3" stroke-linecap="round" stroke-linejoin="round"/>
<path id="Vector_4" d="M13.5 40.5H13.5225" stroke="#242424" stroke-width="3" stroke-linecap="round" stroke-linejoin="round"/>
</g>
</svg>
